<svg width="123" height="34" viewBox="0 0 123 34" fill="none" xmlns="http://www.w3.org/2000/svg">
<path d="M108.132 34C107.438 34 106.98 33.2773 107.277 32.6497L110.87 25.0484L104.682 10.1301C104.423 9.50718 104.881 8.82163 105.556 8.82163H108.694C109.093 8.82163 109.449 9.0718 109.584 9.44706L113.417 20.0874L113.419 20.0876L117.399 9.43654C117.537 9.06675 117.89 8.82163 118.285 8.82163H121.433C122.117 8.82163 122.575 9.52439 122.299 10.1498L114.982 26.7222L114.975 26.712L114.971 26.7222H114.982L111.997 33.4382C111.846 33.7798 111.507 34 111.133 34H108.132Z" fill="#2C2C2C"/>
<path d="M97.8414 26.5751C97.3189 26.5751 96.8954 26.1516 96.8954 25.6291V0.946049C96.8954 0.423561 97.3189 0 97.8414 0H100.764C101.287 0 101.711 0.423561 101.711 0.946049V25.6291C101.711 26.1516 101.287 26.5751 100.764 26.5751H97.8414Z" fill="#2C2C2C"/>
<path d="M88.5133 26.1972C88.692 26.4351 88.9722 26.5751 89.2698 26.5751H92.7283C93.5183 26.5751 93.9603 25.6641 93.4713 25.0435L87.3402 17.2628L93.032 10.37C93.5415 9.75309 93.1026 8.82162 92.3025 8.82162H89.2169C88.9285 8.82162 88.6558 8.9532 88.4763 9.17899L82.3785 16.8504C82.3454 16.8921 82.3163 16.9358 82.2912 16.9811V0.946049C82.2912 0.423561 81.8676 0 81.3451 0H78.4221C77.8996 0 77.476 0.423561 77.476 0.946049V25.6291C77.476 26.1516 77.8996 26.5751 78.4221 26.5751H81.3451C81.8676 26.5751 82.2912 26.1516 82.2912 25.6291V17.8971C82.3122 17.935 82.336 17.9718 82.3626 18.0072L88.5133 26.1972Z" fill="#2C2C2C"/>
<path d="M67.7654 26.9427C65.952 26.9427 64.3225 26.5384 62.8767 25.7297C61.431 24.9211 60.2915 23.8184 59.4583 22.4216C58.6252 21.0249 58.2086 19.4566 58.2086 17.7168C58.2086 15.9524 58.6252 14.3719 59.4583 12.9751C60.2915 11.5784 61.431 10.4757 62.8767 9.66703C64.347 8.83388 65.9765 8.4173 67.7654 8.4173C69.1621 8.4173 70.4486 8.6746 71.6248 9.18919C72.5265 9.58369 73.3346 10.1078 74.0491 10.7615C74.4184 11.0994 74.4011 11.6724 74.0493 12.0283L72.2913 13.8073C71.9094 14.1937 71.285 14.1697 70.8411 13.8564C70.5525 13.6527 70.2379 13.4815 69.8973 13.3427C69.2601 13.0732 68.5495 12.9384 67.7654 12.9384C66.8832 12.9384 66.0868 13.1467 65.3762 13.5632C64.6901 13.9553 64.1387 14.5067 63.7221 15.2173C63.3301 15.9034 63.134 16.7243 63.134 17.68C63.134 18.6112 63.3301 19.4443 63.7221 20.1795C64.1387 20.8901 64.6901 21.4537 65.3762 21.8703C66.0868 22.2623 66.8832 22.4584 67.7654 22.4584C68.574 22.4584 69.2969 22.3236 69.934 22.0541C70.2767 21.9018 70.5931 21.7166 70.8832 21.4985C71.3226 21.1683 71.9558 21.1353 72.3445 21.524L74.1058 23.2852C74.4651 23.6446 74.4796 24.2278 74.1021 24.568C73.3563 25.2403 72.5305 25.7746 71.6248 26.1708C70.4486 26.6854 69.1621 26.9427 67.7654 26.9427Z" fill="#2C2C2C"/>
<path d="M51.2135 26.5751C50.691 26.5751 50.2674 26.1516 50.2674 25.6291V9.76766C50.2674 9.24518 50.691 8.82162 51.2135 8.82162H54.1733C54.6958 8.82162 55.1193 9.24518 55.1193 9.76766V25.6291C55.1193 26.1516 54.6958 26.5751 54.1733 26.5751H51.2135ZM52.6934 5.95459C51.9092 5.95459 51.2599 5.69729 50.7453 5.1827C50.2307 4.6436 49.9734 3.98198 49.9734 3.19783C49.9734 2.43819 50.2307 1.78883 50.7453 1.24973C51.2599 0.710628 51.9092 0.441079 52.6934 0.441079C53.502 0.441079 54.1514 0.710628 54.6415 1.24973C55.1561 1.78883 55.4134 2.43819 55.4134 3.19783C55.4134 3.98198 55.1561 4.6436 54.6415 5.1827C54.1514 5.69729 53.502 5.95459 52.6934 5.95459Z" fill="#2C2C2C"/>
<path d="M38.42 26.9427C36.8517 26.9427 35.4549 26.6119 34.2297 25.9503C33.029 25.2886 32.0856 24.3697 31.3995 23.1935C30.7133 22.0173 30.3703 20.6573 30.3703 19.1135V9.76766C30.3703 9.24518 30.7938 8.82162 31.3163 8.82162H34.2761C34.7986 8.82162 35.2222 9.24518 35.2222 9.76766V19.0032C35.2222 19.7384 35.3447 20.3755 35.5897 20.9146C35.8348 21.4292 36.2023 21.8213 36.6924 22.0908C37.1825 22.3604 37.7584 22.4951 38.42 22.4951C39.4247 22.4951 40.2088 22.1888 40.7724 21.5762C41.336 20.9636 41.6178 20.1059 41.6178 19.0032V9.76766C41.6178 9.24517 42.0414 8.82162 42.5639 8.82162H45.4869C46.0094 8.82162 46.433 9.24518 46.433 9.76766V19.1135C46.433 20.6818 46.0899 22.054 45.4038 23.2303C44.7422 24.4065 43.7987 25.3254 42.5735 25.987C41.3728 26.6241 39.9883 26.9427 38.42 26.9427Z" fill="#2C2C2C"/>
<path d="M13.4162 26.9794C11.5294 26.9794 9.76504 26.6364 8.12324 25.9503C6.50594 25.2641 5.08468 24.3207 3.85946 23.12C2.63423 21.8948 1.67856 20.4735 0.992432 18.8562C0.330811 17.2144 0 15.4623 0 13.6C0 11.7376 0.330811 10.0101 0.992432 8.41729C1.67856 6.79999 2.62198 5.39099 3.8227 4.19026C5.04793 2.96504 6.46919 2.02162 8.08648 1.35999C9.70378 0.673868 11.4559 0.330805 13.3427 0.330805C15.2295 0.330805 16.9816 0.673868 18.5989 1.35999C20.2162 2.02162 21.6375 2.96504 22.8627 4.19026C24.0879 5.39099 25.0313 6.79999 25.693 8.41729C26.3791 10.0346 26.7222 11.7744 26.7222 13.6367C26.7222 15.4991 26.3791 17.2389 25.693 18.8562C25.0313 20.4735 24.0879 21.8948 22.8627 23.12C21.662 24.3207 20.253 25.2641 18.6357 25.9503C17.0184 26.6364 15.2786 26.9794 13.4162 26.9794ZM13.3427 22.3113C14.9845 22.3113 16.418 21.9438 17.6432 21.2086C18.893 20.4735 19.8609 19.4566 20.547 18.1578C21.2577 16.8591 21.613 15.3398 21.613 13.6C21.613 12.3258 21.4047 11.1618 20.9881 10.1081C20.596 9.05441 20.0324 8.14774 19.2973 7.3881C18.5622 6.60396 17.6922 6.0036 16.6876 5.58702C15.6829 5.17044 14.5679 4.96216 13.3427 4.96216C11.7254 4.96216 10.2919 5.32972 9.04216 6.06486C7.81694 6.77549 6.84901 7.78017 6.13838 9.07891C5.45225 10.3777 5.10919 11.8847 5.10919 13.6C5.10919 14.8987 5.30522 16.0872 5.6973 17.1654C6.11387 18.2436 6.67748 19.1625 7.38811 19.9222C8.12324 20.6818 8.99315 21.2699 9.99784 21.6865C11.027 22.1031 12.142 22.3113 13.3427 22.3113Z" fill="#2C2C2C"/>
<path d="M11.3654 15.4339L19.6445 21.578C20.0987 21.9151 20.6544 21.3152 20.2836 20.8881L14.5052 14.2319L13.8352 8.32829C13.7748 7.79593 13.0154 7.7584 12.9028 8.28222L11.3654 15.4339Z" fill="#EE7828"/>
</svg>
